<svg version="1.1" id="Layer_1" xmlns="http://www.w3.org/2000/svg" xmlns:xlink="http://www.w3.org/1999/xlink" x="0px" y="0px"
	 width="100%" viewBox="0 0 4267 4268" enable-background="new 0 0 4267 4268" xml:space="preserve">
<path fill="#E0E0E0" opacity="1.000000" stroke="none" 
	d="
M16.000000,4272.000000 
	C12.000935,4272.000000 8.001869,4272.000000 4.002103,4272.000000 
	C4.001402,2849.666504 4.001402,1427.333130 4.001402,4.499884 
	C1426.666504,4.499884 2849.333252,4.499884 4272.000000,4.499884 
	C4272.000000,5.335200 4272.000000,6.667600 4270.994141,9.968773 
	C4269.317871,11.963015 4268.647461,11.988483 4266.162109,11.513092 
	C4257.015137,10.964506 4249.683105,10.874994 4242.351074,10.874963 
	C2842.503174,10.868837 1442.655396,10.869049 42.807560,10.869346 
	C37.474808,10.869348 32.129501,10.648768 26.813189,10.945553 
	C22.375452,11.193292 17.971684,12.049491 12.869568,12.726952 
	C12.869568,21.686056 12.869557,29.661770 12.869558,37.637482 
	C12.869664,1438.818604 12.869500,2839.999512 12.872111,4241.180664 
	C12.872124,4247.846191 12.651586,4254.528320 13.065562,4261.169434 
	C13.215946,4263.582031 14.922453,4265.896973 15.949652,4269.192383 
	C15.980330,4270.127930 16.000000,4272.000000 16.000000,4272.000000 
z"/>
<path fill="#9F9F9F" opacity="1.000000" stroke="none" 
	d="
M4267.977539,12.013953 
	C4268.647461,11.988483 4269.317871,11.963015 4270.994141,11.968773 
	C4272.000000,1429.457031 4272.000000,2846.914062 4270.811523,4266.073242 
	C4268.833496,4267.669922 4268.044434,4267.564453 4267.504395,4265.632812 
	C4267.835938,4255.810059 4267.989258,4247.812988 4267.989746,4239.815430 
	C4268.001953,3923.830322 4268.001953,3607.844971 4268.000000,3291.859863 
	C4267.993164,2198.577881 4267.985352,1105.295898 4267.977539,12.013953 
z"/>
<path fill="#D7D7D7" opacity="1.000000" stroke="none" 
	d="
M4267.255371,4267.458496 
	C4268.044434,4267.564453 4268.833496,4267.669922 4270.811523,4267.887695 
	C4272.000000,4269.333008 4272.000000,4270.665527 4272.000000,4271.999023 
	C2854.542969,4272.000000 1437.086060,4272.000000 17.814529,4272.000000 
	C16.000000,4272.000000 15.980330,4270.127930 17.818119,4268.970703 
	C27.654673,4267.797363 35.653435,4267.766602 43.652195,4267.766602 
	C1442.857544,4267.764160 2842.062744,4267.764648 4241.268066,4267.751465 
	C4249.930664,4267.751465 4258.592773,4267.560059 4267.255371,4267.458496 
z"/>
<path fill="#000000" opacity="1.000000" stroke="none" 
	d="
M4267.504395,4265.632812 
	C4258.592773,4267.560059 4249.930664,4267.751465 4241.268066,4267.751465 
	C2842.062744,4267.764648 1442.857544,4267.764160 43.652195,4267.766602 
	C35.653435,4267.766602 27.654673,4267.797363 17.787441,4268.035156 
	C14.922453,4265.896973 13.215946,4263.582031 13.065562,4261.169434 
	C12.651586,4254.528320 12.872124,4247.846191 12.872111,4241.180664 
	C12.869500,2839.999512 12.869664,1438.818604 12.869558,37.637482 
	C12.869557,29.661770 12.869568,21.686056 12.869568,12.726952 
	C17.971684,12.049491 22.375452,11.193292 26.813189,10.945553 
	C32.129501,10.648768 37.474808,10.869348 42.807560,10.869346 
	C1442.655396,10.869049 2842.503174,10.868837 4242.351074,10.874963 
	C4249.683105,10.874994 4257.015137,10.964506 4266.162109,11.513092 
	C4267.985352,1105.295898 4267.993164,2198.577881 4268.000000,3291.859863 
	C4268.001953,3607.844971 4268.001953,3923.830322 4267.989746,4239.815430 
	C4267.989258,4247.812988 4267.835938,4255.810059 4267.504395,4265.632812 
M2601.999756,3492.719482 
	C2853.214355,3492.719482 3104.428955,3492.719482 3355.187256,3492.719482 
	C3356.597412,3489.535645 3357.840820,3487.792236 3358.141357,3485.899170 
	C3389.247070,3289.902588 3420.284424,3093.894775 3451.259521,2897.877441 
	C3451.444824,2896.705078 3450.709961,2895.387695 3450.041260,2892.649658 
	C3442.541748,2892.549805 3434.651367,2892.352783 3426.761230,2892.353516 
	C2962.817139,2892.398682 2498.873047,2892.463135 2034.928833,2892.519043 
	C1918.276001,2892.533203 1801.623291,2892.525879 1684.970459,2892.521484 
	C1679.638428,2892.521240 1674.268677,2892.837158 1668.984619,2892.315186 
	C1663.064087,2891.730469 1657.040894,2890.954102 1651.374023,2889.234375 
	C1613.133301,2877.629395 1587.787598,2837.284180 1593.551392,2797.417480 
	C1596.982056,2773.689209 1600.625000,2749.991699 1604.167725,2726.279785 
	C1611.450073,2677.536133 1618.741455,2628.793945 1626.006470,2580.047852 
	C1633.369263,2530.644043 1640.689575,2481.233887 1648.056885,2431.830811 
	C1655.424316,2382.427734 1662.845703,2333.032471 1670.209229,2283.628906 
	C1677.474976,2234.883057 1684.676758,2186.127197 1691.944824,2137.381836 
	C1699.409180,2087.320312 1706.951660,2037.270508 1714.400635,1987.206909 
	C1721.653809,1938.458984 1728.823364,1889.698730 1736.045532,1840.946289 
	C1743.267456,1792.194458 1750.484009,1743.442017 1757.749146,1694.696777 
	C1765.112183,1645.293823 1772.535522,1595.899658 1779.925781,1546.500854 
	C1787.414429,1496.443726 1794.923340,1446.389893 1802.369873,1396.326660 
	C1809.620728,1347.578247 1816.801270,1298.819336 1824.017578,1250.065796 
	C1831.233765,1201.312866 1838.420288,1152.555298 1845.685669,1103.809692 
	C1853.048950,1054.406738 1860.505615,1005.017639 1867.897705,955.618896 
	C1875.388550,905.562012 1882.878540,855.504883 1890.290039,805.436218 
	C1891.236694,799.041016 1891.707886,792.575500 1892.500977,785.197266 
	C1887.121460,784.847900 1883.231323,784.396057 1879.339111,784.377014 
	C1862.674805,784.295349 1846.009766,784.340637 1829.345093,784.340637 
	C1626.702515,784.340515 1424.059937,784.321045 1221.417358,784.422607 
	C1214.376953,784.426147 1207.011475,782.925781 1200.072876,786.086853 
	C1198.789673,792.649231 1197.426147,798.485657 1196.527832,804.392822 
	C1187.917603,861.016418 1179.490479,917.667969 1170.804321,974.279846 
	C1160.805664,1039.447144 1150.497437,1104.567139 1140.508911,1169.735962 
	C1130.520142,1234.907471 1120.865601,1300.130249 1110.870483,1365.300781 
	C1100.875732,1430.469116 1090.529785,1495.583496 1080.541504,1560.752808 
	C1070.552979,1625.923950 1060.949585,1691.154419 1050.937012,1756.321777 
	C1036.980469,1847.158569 1022.738586,1937.951416 1008.733154,2028.780762 
	C994.017273,2124.217285 979.434509,2219.674561 964.796875,2315.123047 
	C951.471436,2402.015625 938.088257,2488.899170 924.844299,2575.804199 
	C910.897888,2667.319092 897.213013,2758.874512 883.181763,2850.376465 
	C867.838562,2950.433350 852.158630,3050.438477 836.818848,3150.496094 
	C834.703491,3164.294189 832.491943,3178.253418 832.383301,3192.154053 
	C831.815674,3264.780273 855.153748,3329.515137 899.413818,3386.663574 
	C936.057739,3433.977783 983.556274,3465.657959 1041.238525,3481.943604 
	C1070.332275,3490.157959 1100.005371,3492.820557 1130.173950,3492.812256 
	C1619.449097,3492.680176 2108.724365,3492.719238 2601.999756,3492.719482 
M3195.508301,1366.000122 
	C3195.705322,1320.714233 3195.898438,1275.428467 3196.154785,1230.142944 
	C3196.157471,1229.644775 3196.990967,1229.151367 3198.745605,1227.200562 
	C3209.226562,1227.158447 3221.070801,1227.092163 3232.914795,1227.068726 
	C3244.912109,1227.044800 3256.909180,1227.063354 3268.906494,1227.063354 
	C3280.903809,1227.063354 3292.900879,1227.063354 3304.898193,1227.063354 
	C3317.562012,1227.063354 3330.225586,1227.063354 3342.889404,1227.063354 
	C3354.886719,1227.063354 3366.883789,1227.063354 3378.881104,1227.063354 
	C3390.878418,1227.063354 3402.877197,1227.189941 3414.872314,1227.027466 
	C3426.691162,1226.867432 3438.592285,1227.824707 3450.033447,1226.365967 
	C3452.893799,1207.140381 3452.658691,1057.860474 3449.740723,1040.799316 
	C3438.226562,1039.813599 3426.340332,1040.439941 3414.498779,1040.335938 
	C3402.502441,1040.230591 3390.504639,1040.312744 3378.507324,1040.312744 
	C3366.510010,1040.312744 3354.512939,1040.312744 3342.515625,1040.312744 
	C3329.851807,1040.312744 3317.188232,1040.312744 3304.524414,1040.312744 
	C3292.527100,1040.312744 3280.530029,1040.312744 3268.532715,1040.312744 
	C3256.535400,1040.312744 3244.537354,1040.407837 3232.541260,1040.285645 
	C3220.728760,1040.165405 3208.862061,1040.864014 3195.844482,1039.662476 
	C3195.719727,1031.961914 3195.524658,1025.446777 3195.522461,1018.931580 
	C3195.500488,946.948181 3195.557861,874.964722 3195.412598,802.981628 
	C3195.400879,797.263550 3197.363770,790.989685 3192.635010,785.709839 
	C3190.761719,785.392273 3188.840088,784.783875 3186.918213,784.781860 
	C3130.931152,784.723206 3074.944336,784.693970 3018.957520,784.801086 
	C3015.897461,784.806885 3012.839600,786.029541 3008.936768,786.866821 
	C3008.936768,798.392639 3008.937012,808.997009 3008.937012,819.601379 
	C3008.937012,829.599060 3008.937012,839.596802 3008.937012,849.594482 
	C3008.937012,860.258667 3008.937012,870.922913 3008.937012,881.587097 
	C3008.937012,892.251282 3008.937012,902.915527 3008.937012,913.579712 
	C3008.937012,924.243896 3008.937012,934.908142 3008.937012,945.572327 
	C3008.937012,955.570007 3008.937012,965.567688 3008.937012,975.565369 
	C3008.937012,986.229553 3009.032227,996.894897 3008.909912,1007.557678 
	C3008.790039,1018.008179 3009.495850,1028.526245 3008.152832,1040.312744 
	C3000.377197,1040.312744 2993.839844,1040.312622 2987.302490,1040.312622 
	C2915.319092,1040.313110 2843.335693,1040.290527 2771.352295,1040.363403 
	C2766.237793,1040.368652 2761.123779,1041.076660 2755.670898,1041.483154 
	C2755.407227,1047.364502 2755.010010,1051.974976 2755.022705,1056.584351 
	C2755.173584,1111.881592 2755.383057,1167.178711 2755.604248,1222.475708 
	C2755.606689,1223.115112 2755.837891,1223.834595 2756.187988,1224.368530 
	C2756.529053,1224.888672 2757.160156,1225.218506 2759.408691,1227.063110 
	C2764.165283,1227.063110 2770.727539,1227.062988 2777.290039,1227.062988 
	C2849.273438,1227.063721 2921.256592,1227.015625 2993.239746,1227.171021 
	C2998.256104,1227.181885 3003.948975,1225.101685 3009.426514,1231.104004 
	C3009.426514,1312.471313 3009.425537,1395.054443 3009.448975,1477.637695 
	C3009.449219,1478.268066 3009.654297,1478.984619 3009.999268,1479.504761 
	C3010.351318,1480.035400 3010.994629,1480.372925 3012.462646,1481.573486 
	C3013.991211,1481.776489 3016.556885,1482.411865 3019.122803,1482.414551 
	C3074.443359,1482.472168 3129.763672,1482.488892 3185.083984,1482.381470 
	C3188.232910,1482.375366 3191.379395,1481.240479 3195.508301,1480.440918 
	C3195.508301,1443.192261 3195.508301,1406.596191 3195.508301,1366.000122 
z"/>
<path fill="#FEFEFE" opacity="1.000000" stroke="none" 
	d="
M2599.999512,3492.719482 
	C2108.724365,3492.719238 1619.449097,3492.680176 1130.173950,3492.812256 
	C1100.005371,3492.820557 1070.332275,3490.157959 1041.238525,3481.943604 
	C983.556274,3465.657959 936.057739,3433.977783 899.413818,3386.663574 
	C855.153748,3329.515137 831.815674,3264.780273 832.383301,3192.154053 
	C832.491943,3178.253418 834.703491,3164.294189 836.818848,3150.496094 
	C852.158630,3050.438477 867.838562,2950.433350 883.181763,2850.376465 
	C897.213013,2758.874512 910.897888,2667.319092 924.844299,2575.804199 
	C938.088257,2488.899170 951.471436,2402.015625 964.796875,2315.123047 
	C979.434509,2219.674561 994.017273,2124.217285 1008.733154,2028.780762 
	C1022.738586,1937.951416 1036.980469,1847.158569 1050.937012,1756.321777 
	C1060.949585,1691.154419 1070.552979,1625.923950 1080.541504,1560.752808 
	C1090.529785,1495.583496 1100.875732,1430.469116 1110.870483,1365.300781 
	C1120.865601,1300.130249 1130.520142,1234.907471 1140.508911,1169.735962 
	C1150.497437,1104.567139 1160.805664,1039.447144 1170.804321,974.279846 
	C1179.490479,917.667969 1187.917603,861.016418 1196.527832,804.392822 
	C1197.426147,798.485657 1198.789673,792.649231 1200.072876,786.086853 
	C1207.011475,782.925781 1214.376953,784.426147 1221.417358,784.422607 
	C1424.059937,784.321045 1626.702515,784.340515 1829.345093,784.340637 
	C1846.009766,784.340637 1862.674805,784.295349 1879.339111,784.377014 
	C1883.231323,784.396057 1887.121460,784.847900 1892.500977,785.197266 
	C1891.707886,792.575500 1891.236694,799.041016 1890.290039,805.436218 
	C1882.878540,855.504883 1875.388550,905.562012 1867.897705,955.618896 
	C1860.505615,1005.017639 1853.048950,1054.406738 1845.685669,1103.809692 
	C1838.420288,1152.555298 1831.233765,1201.312866 1824.017578,1250.065796 
	C1816.801270,1298.819336 1809.620728,1347.578247 1802.369873,1396.326660 
	C1794.923340,1446.389893 1787.414429,1496.443726 1779.925781,1546.500854 
	C1772.535522,1595.899658 1765.112183,1645.293823 1757.749146,1694.696777 
	C1750.484009,1743.442017 1743.267456,1792.194458 1736.045532,1840.946289 
	C1728.823364,1889.698730 1721.653809,1938.458984 1714.400635,1987.206909 
	C1706.951660,2037.270508 1699.409180,2087.320312 1691.944824,2137.381836 
	C1684.676758,2186.127197 1677.474976,2234.883057 1670.209229,2283.628906 
	C1662.845703,2333.032471 1655.424316,2382.427734 1648.056885,2431.830811 
	C1640.689575,2481.233887 1633.369263,2530.644043 1626.006470,2580.047852 
	C1618.741455,2628.793945 1611.450073,2677.536133 1604.167725,2726.279785 
	C1600.625000,2749.991699 1596.982056,2773.689209 1593.551392,2797.417480 
	C1587.787598,2837.284180 1613.133301,2877.629395 1651.374023,2889.234375 
	C1657.040894,2890.954102 1663.064087,2891.730469 1668.984619,2892.315186 
	C1674.268677,2892.837158 1679.638428,2892.521240 1684.970459,2892.521484 
	C1801.623291,2892.525879 1918.276001,2892.533203 2034.928833,2892.519043 
	C2498.873047,2892.463135 2962.817139,2892.398682 3426.761230,2892.353516 
	C3434.651367,2892.352783 3442.541748,2892.549805 3450.041260,2892.649658 
	C3450.709961,2895.387695 3451.444824,2896.705078 3451.259521,2897.877441 
	C3420.284424,3093.894775 3389.247070,3289.902588 3358.141357,3485.899170 
	C3357.840820,3487.792236 3356.597412,3489.535645 3355.187256,3492.719482 
	C3104.428955,3492.719482 2853.214355,3492.719482 2599.999512,3492.719482 
z"/>
<path fill="#FCFCFC" opacity="1.000000" stroke="none" 
	d="
M3195.508301,1368.000244 
	C3195.508301,1406.596191 3195.508301,1443.192261 3195.508301,1480.440918 
	C3191.379395,1481.240479 3188.232910,1482.375366 3185.083984,1482.381470 
	C3129.763672,1482.488892 3074.443359,1482.472168 3019.122803,1482.414551 
	C3016.556885,1482.411865 3013.991211,1481.776489 3012.462646,1481.573486 
	C3010.994629,1480.372925 3010.351318,1480.035400 3009.999268,1479.504761 
	C3009.654297,1478.984619 3009.449219,1478.268066 3009.448975,1477.637695 
	C3009.425537,1395.054443 3009.426514,1312.471313 3009.426514,1231.104004 
	C3003.948975,1225.101685 2998.256104,1227.181885 2993.239746,1227.171021 
	C2921.256592,1227.015625 2849.273438,1227.063721 2777.290039,1227.062988 
	C2770.727539,1227.062988 2764.165283,1227.063110 2759.408691,1227.063110 
	C2757.160156,1225.218506 2756.529053,1224.888672 2756.187988,1224.368530 
	C2755.837891,1223.834595 2755.606689,1223.115112 2755.604248,1222.475708 
	C2755.383057,1167.178711 2755.173584,1111.881592 2755.022705,1056.584351 
	C2755.010010,1051.974976 2755.407227,1047.364502 2755.670898,1041.483154 
	C2761.123779,1041.076660 2766.237793,1040.368652 2771.352295,1040.363403 
	C2843.335693,1040.290527 2915.319092,1040.313110 2987.302490,1040.312622 
	C2993.839844,1040.312622 3000.377197,1040.312744 3008.152832,1040.312744 
	C3009.495850,1028.526245 3008.790039,1018.008179 3008.909912,1007.557678 
	C3009.032227,996.894897 3008.937012,986.229553 3008.937012,975.565369 
	C3008.937012,965.567688 3008.937012,955.570007 3008.937012,945.572327 
	C3008.937012,934.908142 3008.937012,924.243896 3008.937012,913.579712 
	C3008.937012,902.915527 3008.937012,892.251282 3008.937012,881.587097 
	C3008.937012,870.922913 3008.937012,860.258667 3008.937012,849.594482 
	C3008.937012,839.596802 3008.937012,829.599060 3008.937012,819.601379 
	C3008.937012,808.997009 3008.936768,798.392639 3008.936768,786.866821 
	C3012.839600,786.029541 3015.897461,784.806885 3018.957520,784.801086 
	C3074.944336,784.693970 3130.931152,784.723206 3186.918213,784.781860 
	C3188.840088,784.783875 3190.761719,785.392273 3192.635010,785.709839 
	C3197.363770,790.989685 3195.400879,797.263550 3195.412598,802.981628 
	C3195.557861,874.964722 3195.500488,946.948181 3195.522461,1018.931580 
	C3195.524658,1025.446777 3195.719727,1031.961914 3195.844482,1039.662476 
	C3208.862061,1040.864014 3220.728760,1040.165405 3232.541260,1040.285645 
	C3244.537354,1040.407837 3256.535400,1040.312744 3268.532715,1040.312744 
	C3280.530029,1040.312744 3292.527100,1040.312744 3304.524414,1040.312744 
	C3317.188232,1040.312744 3329.851807,1040.312744 3342.515625,1040.312744 
	C3354.512939,1040.312744 3366.510010,1040.312744 3378.507324,1040.312744 
	C3390.504639,1040.312744 3402.502441,1040.230591 3414.498779,1040.335938 
	C3426.340332,1040.439941 3438.226562,1039.813599 3449.740723,1040.799316 
	C3452.658691,1057.860474 3452.893799,1207.140381 3450.033447,1226.365967 
	C3438.592285,1227.824707 3426.691162,1226.867432 3414.872314,1227.027466 
	C3402.877197,1227.189941 3390.878418,1227.063354 3378.881104,1227.063354 
	C3366.883789,1227.063354 3354.886719,1227.063354 3342.889404,1227.063354 
	C3330.225586,1227.063354 3317.562012,1227.063354 3304.898193,1227.063354 
	C3292.900879,1227.063354 3280.903809,1227.063354 3268.906494,1227.063354 
	C3256.909180,1227.063354 3244.912109,1227.044800 3232.914795,1227.068726 
	C3221.070801,1227.092163 3209.226562,1227.158447 3198.745605,1227.200562 
	C3196.990967,1229.151367 3196.157471,1229.644775 3196.154785,1230.142944 
	C3195.898438,1275.428467 3195.705322,1320.714233 3195.508301,1368.000244 
z"/>
</svg>